<?xml version="1.0" encoding="UTF-8"?><svg id="Layer_2" xmlns="http://www.w3.org/2000/svg" viewBox="0 0 171.97 51"><defs><style>.cls-1{fill:#fff;}</style></defs><g id="Layer_1-2"><g><g><path class="cls-1" d="M29.83,24.5c-.04,.34-1.37,8.18-9.85,15.51-3.6,3.04-7.41,4.58-10.79,4.58-2.14,0-4.07-.6-5.7-1.84-3.17-2.44-5.23-7.92-1.46-16.15,.13-.26,.43-.39,.69-.3,.26,.09,.39,.39,.34,.64,0,.04-1.16,5.65,1.37,9.08,1.11,1.54,2.83,2.44,5.05,2.7,.13,0,10.97,.99,19.36-14.56,.13-.21,.39-.34,.64-.26,.26,.09,.39,.34,.34,.6Z"/><path class="cls-1" d="M11.54,33.36s-.13,.04-.17,.04c-.21,0-.39-.09-.47-.26-.13-.26-.09-.56,.13-.69,.04-.09,6.25-5.01,9.47-12.04,.04-.04,2.4-5.27,.86-7.75-.51-.81-1.37-1.24-2.7-1.28-.09,0-2.4-.26-6.68,2.87-.21,.17-.56,.13-.73-.09-.17-.21-.17-.51,0-.73,.26-.21,5.65-6,10.84-6,2.48,0,4.11,1.28,4.58,3.64,1.24,6.34-6,18.5-15.12,22.27Z"/></g><path class="cls-1" d="M74.6,13c-.75-.85-1.71-1.49-2.86-1.92-1.16-.43-2.55-.65-4.12-.65-1.88,0-3.56,.37-5.01,1.09-1.45,.72-2.7,1.82-3.73,3.27h0c-.16,.23-.51,.2-.63-.05h0c-.69-1.43-1.69-2.52-2.96-3.23-1.29-.72-2.9-1.08-4.8-1.08-1.74,0-3.31,.3-4.68,.88s-2.06,1.17-3.12,2.15c-.26,.29-1.02,.36-1.1-.38l-.11-1.69c-.01-.23-.21-.41-.43-.41h-4.68c-.24,0-.43,.19-.43,.43v27.84c0,.24,.19,.43,.43,.43h5.02c.24,0,.43-.19,.43-.43V19.47c0-.63,.19-1.23,.55-1.75,1.2-1.71,3.04-2.58,5.45-2.58,1.82,0,3.22,.47,4.17,1.4,.95,.93,1.46,2.32,1.5,4.15h0v18.58c0,.24,.19,.44,.44,.44h5.01c.12,0,.23-.05,.31-.13,.08-.08,.13-.19,.13-.31l-.03-18.95c0-.36,.06-.71,.18-1.04,.42-1.14,1.07-2.09,1.95-2.83,1.02-.86,2.34-1.3,3.93-1.3,1.98,0,3.44,.48,4.32,1.42,.88,.94,1.33,2.4,1.33,4.36v18.35c0,.24,.19,.43,.43,.43h5.01c.24,0,.44-.19,.44-.44V20.71c-.04-3.39-.82-5.98-2.35-7.7Z"/><path class="cls-1" d="M89.25,10.99h-5.02c-.24,0-.43,.19-.43,.43v27.84c0,.24,.19,.43,.43,.43h5.02c.24,0,.43-.19,.43-.43V11.42c0-.24-.2-.43-.43-.43Z"/><path class="cls-1" d="M120.82,18.98c-.25-.9-.56-1.75-.93-2.53-.37-.78-.81-1.5-1.3-2.14-.98-1.29-2.16-2.26-3.51-2.9-1.35-.64-2.92-.97-4.65-.97-1.5,0-2.87,.25-4.08,.74-1.2,.49-2.26,1.23-3.17,2.22-.17,.19-.43,.25-.67,.17-.24-.08-.4-.29-.43-.54l-.15-1.63c-.02-.23-.21-.4-.43-.4h-4.57c-.24,0-.43,.19-.43,.43V50.57c0,.24,.19,.44,.44,.44h5.01c.24,0,.44-.19,.44-.44v-12.48c0-.26,.15-.48,.39-.58,.24-.1,.5-.05,.69,.13,.9,.87,1.95,1.53,3.12,1.96,1.17,.44,2.5,.66,3.94,.66,1.68,0,3.21-.33,4.54-.98,1.33-.65,2.51-1.64,3.51-2.95,1-1.31,1.76-2.87,2.27-4.64,.51-1.78,.76-3.81,.76-6.04v-.41c0-2.33-.25-4.44-.75-6.26Zm-6.95,14.04c-1.26,1.79-3.02,2.7-5.24,2.7-2.52,0-4.44-.95-5.72-2.82-.34-.5-.53-1.09-.53-1.71v-11.6c0-.63,.19-1.22,.54-1.72,1.27-1.81,3.17-2.73,5.66-2.73,2.3,0,4.09,.92,5.33,2.75,1.21,1.78,1.82,4.2,1.82,7.2,0,3.51-.62,6.18-1.85,7.93Z"/><path class="cls-1" d="M141.94,10.61h0c-.47-.11-1.02-.17-1.64-.17-1.22,0-2.34,.25-3.32,.76-.98,.5-1.85,1.27-2.59,2.28-.16,.22-.43,.31-.69,.23-.26-.08-.44-.3-.45-.58l-.09-1.72c-.01-.23-.2-.41-.43-.41h-4.75c-.24,0-.44,.19-.44,.44v27.84c0,.24,.19,.43,.43,.43h5.02c.24,0,.43-.19,.43-.43V20.58c0-.57,.16-1.13,.46-1.61,1.2-1.92,3.23-2.89,6.03-2.89,.62,0,1.25,.03,1.85,.1,.12,.01,.25-.03,.34-.11,.09-.08,.14-.2,.14-.32l.02-4.71c0-.2-.14-.38-.33-.42Z"/><path class="cls-1" d="M170.34,33.27c1.09-2.23,1.64-4.79,1.64-7.63l-.03-1.54c-.1-2.06-.48-3.94-1.13-5.59-.65-1.64-1.59-3.11-2.78-4.34-1.2-1.24-2.59-2.18-4.15-2.79-1.56-.62-3.33-.93-5.27-.93-2.61,0-4.94,.61-6.95,1.81-2,1.2-3.57,2.95-4.68,5.18-1.11,2.25-1.68,4.82-1.68,7.64v.33c0,2.25,.31,4.31,.92,6.11,.61,1.79,1.52,3.38,2.73,4.71,1.21,1.34,2.63,2.35,4.24,3.02,1.61,.67,3.45,1.01,5.47,1.01,2.64,0,5-.61,7.01-1.83,2.01-1.21,3.57-2.94,4.65-5.16Zm-6.15-.32h0c-1.31,1.84-3.17,2.77-5.51,2.77s-4.21-.92-5.53-2.72c-1.29-1.77-1.95-4.24-1.95-7.34,0-3.48,.67-6.14,1.98-7.91,1.34-1.81,3.17-2.72,5.44-2.72s4.16,.93,5.51,2.76c1.32,1.8,1.99,4.25,1.99,7.3,0,3.42-.65,6.07-1.93,7.86Z"/><path class="cls-1" d="M89.68,2.8c.08,1.73-1.35,3.16-3.08,3.08-1.51-.07-2.73-1.29-2.8-2.8-.08-1.73,1.35-3.16,3.08-3.08,1.51,.07,2.73,1.29,2.8,2.8Z"/></g></g></svg>