<?xml version="1.0" encoding="UTF-8"?><svg id="Layer_2" xmlns="http://www.w3.org/2000/svg" viewBox="0 0 133.43 66.36"><defs><style>.cls-1{fill:#fff;}.cls-2{fill:#d89d00;}.cls-3{fill:#964680;}.cls-4{fill:#838383;}</style></defs><g id="Layer_1-2"><g id="Layer_2-2"><g id="Layer_4"><path class="cls-3" d="M16.16,10.27c2.12,0,4.22,.44,6.15,1.32,3.84,1.69,6.91,4.77,8.59,8.61,1.71,3.98,1.71,8.49,0,12.47-.82,1.89-1.98,3.61-3.42,5.08-3.01,3.04-7.12,4.74-11.41,4.71-2.14,.02-4.27-.39-6.26-1.2-1.91-.77-3.65-1.91-5.11-3.36-1.45-1.46-2.6-3.19-3.38-5.1C.44,30.8,0,28.62,0,26.43c-.04-4.23,1.64-8.3,4.65-11.27,1.5-1.46,3.25-2.62,5.16-3.45,2.01-.88,4.16-1.36,6.35-1.44Zm0,6.58c-1.27,0-2.52,.25-3.69,.74-1.17,.46-2.23,1.15-3.12,2.03-.87,.87-1.57,1.89-2.07,3.02-1.02,2.39-1.02,5.1,0,7.49,.49,1.15,1.19,2.19,2.07,3.08,2.68,2.82,6.84,3.66,10.4,2.09,1.15-.48,2.2-1.2,3.07-2.09,.86-.9,1.56-1.94,2.05-3.08,.51-1.17,.77-2.43,.76-3.7-.14-5.2-4.3-9.4-9.51-9.57h.03Z"/><path class="cls-4" d="M62.45,0c.79,0,1.55,.32,2.08,.91,.61,.53,.98,1.29,1,2.09V26.35c.01,2.13-.44,4.24-1.32,6.18-.86,1.92-2.08,3.66-3.6,5.12-1.5,1.46-3.24,2.64-5.15,3.49-1.91,.87-3.99,1.32-6.08,1.32-2.13,0-4.24-.46-6.19-1.32-1.91-.82-3.64-1.99-5.11-3.46-1.48-1.47-2.67-3.21-3.5-5.12-.87-1.97-1.32-4.09-1.32-6.24-.05-2.16,.35-4.31,1.16-6.32,.84-1.91,2.02-3.65,3.49-5.12h0c1.61-1.48,3.5-2.63,5.54-3.4,1.93-.79,4-1.2,6.08-1.2,1.49,.03,2.98,.23,4.43,.59,1.8,.46,3.5,1.24,5.02,2.32V3.34c0-.43,.09-.86,.26-1.25,.18-.4,.41-.77,.7-1.11,.29-.33,.64-.59,1.04-.76,.37-.17,.79-.25,1.2-.21h.26Zm-3.46,26.34c0-1.22-.26-2.42-.76-3.53-.52-1.13-1.22-2.17-2.09-3.06-.88-.9-1.91-1.63-3.06-2.16-1.15-.53-2.4-.8-3.66-.79-1.27,0-2.53,.25-3.69,.76-1.15,.48-2.19,1.18-3.07,2.05-.87,.88-1.56,1.92-2.05,3.06-.5,1.16-.76,2.4-.76,3.66-.01,1.28,.25,2.54,.76,3.71,.49,1.13,1.19,2.16,2.05,3.03,.88,.88,1.92,1.58,3.07,2.07,1.16,.51,2.42,.77,3.69,.76,1.26,0,2.51-.25,3.66-.76,1.13-.5,2.17-1.2,3.06-2.07,.89-.86,1.6-1.89,2.09-3.03,.52-1.17,.78-2.44,.76-3.71Z"/><path class="cls-4" d="M83.6,10.27c2.12,0,4.22,.44,6.15,1.32,3.84,1.7,6.89,4.77,8.57,8.61,.88,1.96,1.33,4.09,1.32,6.24,0,2.14-.45,4.27-1.32,6.23-.82,1.89-1.98,3.61-3.42,5.08-3.02,3.04-7.13,4.74-11.42,4.71-2.14,.02-4.26-.39-6.24-1.2-1.91-.77-3.66-1.91-5.12-3.36-3.07-3.02-4.78-7.16-4.73-11.47-.03-4.23,1.65-8.3,4.66-11.27,1.49-1.46,3.23-2.63,5.15-3.45,2.02-.88,4.19-1.38,6.4-1.45Zm-.08,6.58c-1.27,0-2.52,.25-3.69,.74-1.14,.47-2.18,1.16-3.06,2.03-.87,.87-1.57,1.89-2.07,3.02-1.02,2.39-1.02,5.1,0,7.49,.49,1.15,1.19,2.19,2.07,3.08,.87,.9,1.91,1.61,3.06,2.09,2.36,1.03,5.03,1.03,7.39,0,1.15-.49,2.19-1.2,3.06-2.09,.87-.89,1.57-1.94,2.07-3.08,.5-1.17,.76-2.43,.76-3.7-.14-5.2-4.3-9.4-9.51-9.57h-.08Z"/><path class="cls-4" d="M117.38,10.27c2.12,0,4.22,.44,6.15,1.32,3.84,1.7,6.89,4.77,8.57,8.61,.88,1.96,1.33,4.09,1.32,6.24,0,2.15-.45,4.27-1.32,6.23-.82,1.89-1.98,3.61-3.42,5.08-3.01,3.04-7.12,4.74-11.41,4.71-2.14,.02-4.27-.39-6.26-1.2-1.91-.77-3.66-1.91-5.12-3.36-3.06-3.03-4.76-7.17-4.71-11.47-.04-4.23,1.64-8.3,4.65-11.27,1.49-1.46,3.24-2.63,5.16-3.45,2.02-.89,4.19-1.38,6.39-1.45Zm0,6.58c-1.27,0-2.53,.25-3.7,.74-1.14,.47-2.18,1.16-3.06,2.03-.87,.87-1.56,1.89-2.05,3.02-1.02,2.39-1.02,5.1,0,7.49,.49,1.15,1.19,2.19,2.05,3.08,.87,.9,1.91,1.61,3.06,2.09,3.58,1.53,7.73,.7,10.44-2.09,.87-.89,1.57-1.94,2.07-3.08,.5-1.17,.76-2.43,.76-3.7-.14-5.2-4.3-9.4-9.51-9.57h-.07Z"/><path class="cls-2" d="M133.41,65.21c0,.63-.51,1.15-1.15,1.15H61.04c-.63,0-1.15-.51-1.15-1.15v-15.8c0-.63,.51-1.15,1.15-1.15h71.22c.63,0,1.15,.51,1.15,1.15h0v15.8Z"/><path class="cls-1" d="M70.88,60.17h.58l.49-.09,.43-.14,.41-.18v-1.73h-1.19c-.05,.02-.12,.02-.17,0-.04-.04-.06-.09-.07-.14v-.59h2.38v2.96c-.19,.14-.4,.26-.61,.37-.22,.1-.44,.18-.67,.25-.25,.08-.5,.13-.76,.16-.29,.02-.59,.02-.88,0-.53,0-1.05-.09-1.54-.29-.46-.18-.87-.45-1.21-.8-.35-.38-.61-.83-.78-1.32-.2-.51-.3-1.05-.29-1.59,0-.55,.09-1.09,.28-1.61,.35-.94,1.09-1.69,2.03-2.04,.52-.2,1.08-.3,1.63-.29,.28-.02,.57-.02,.86,0,.25,.04,.49,.1,.72,.2,.22,.08,.42,.18,.62,.3,.19,.12,.37,.25,.54,.41l-.3,.47c-.05,.09-.14,.15-.24,.14-.06,.01-.12,.01-.18,0l-.3-.18c-.13-.08-.27-.14-.41-.2-.18-.08-.36-.13-.55-.17-.26-.06-.52-.08-.78-.08-.4,0-.8,.07-1.17,.22-.35,.13-.66,.34-.91,.61-.25,.28-.44,.6-.57,.95-.14,.42-.21,.87-.2,1.32-.01,.45,.06,.89,.21,1.32,.12,.36,.32,.7,.58,.97,.25,.26,.56,.47,.9,.61,.36,.14,.74,.21,1.12,.2Z"/><path class="cls-1" d="M77.4,55.39c.37,0,.74,.07,1.08,.21,.31,.12,.59,.31,.82,.55,.23,.26,.41,.56,.51,.9,.12,.37,.18,.77,.17,1.16,0,.39-.05,.78-.17,1.16-.11,.33-.28,.63-.51,.88-.23,.24-.51,.43-.82,.55-.34,.13-.71,.2-1.08,.2-.37,0-.74-.06-1.08-.2-.31-.12-.59-.31-.82-.55-.24-.25-.42-.55-.53-.88-.12-.37-.19-.77-.18-1.16,0-.39,.06-.79,.18-1.16,.2-.65,.68-1.19,1.32-1.45,.35-.14,.73-.22,1.11-.21Zm0,4.87c.46,.03,.91-.17,1.2-.54,.29-.45,.43-.98,.4-1.51,.03-.53-.11-1.06-.4-1.51-.27-.38-.73-.59-1.2-.54-.24,0-.49,.04-.71,.13-.2,.09-.37,.23-.5,.41-.15,.19-.25,.41-.3,.65-.14,.57-.14,1.17,0,1.74,.05,.23,.16,.45,.3,.65,.13,.17,.3,.31,.5,.4,.22,.1,.47,.15,.71,.14Z"/><path class="cls-1" d="M82.23,53v7.9h-.95v-7.9h.95Z"/><path class="cls-1" d="M87.75,60.93c-.13,0-.24-.08-.25-.21l-.09-.66c-.22,.28-.49,.51-.79,.68-.32,.17-.68,.26-1.04,.25-.29,0-.58-.05-.84-.17-.25-.13-.48-.31-.65-.54-.2-.26-.34-.55-.42-.87-.1-.39-.15-.79-.14-1.2,0-.38,.05-.76,.16-1.12,.1-.33,.26-.63,.47-.9,.19-.26,.45-.46,.74-.61,.31-.15,.65-.22,.99-.21,.29,0,.59,.05,.86,.17,.24,.11,.46,.27,.63,.47v-3.03h.96v7.9l-.58,.03Zm-1.84-.71c.29,0,.57-.07,.82-.21,.25-.16,.47-.36,.65-.61v-2.63c-.15-.22-.35-.39-.58-.5-.22-.1-.46-.15-.7-.14-.46-.02-.9,.19-1.17,.55-.3,.46-.44,1-.41,1.54,0,.31,.03,.61,.09,.91,.05,.23,.15,.44,.28,.63,.11,.15,.26,.28,.43,.36,.19,.08,.39,.11,.59,.11Z"/><path class="cls-1" d="M93.31,58.05v2.88h-1.04v-7.7h2.28c.44-.01,.89,.04,1.32,.16,.33,.1,.63,.26,.9,.49,.24,.2,.42,.46,.53,.75,.12,.31,.19,.65,.18,.99,0,.34-.06,.67-.2,.97-.12,.3-.3,.56-.54,.78-.27,.22-.58,.39-.91,.5-.4,.13-.81,.19-1.22,.18h-1.29Zm0-.83h1.24c.26,0,.53-.04,.78-.12,.21-.07,.41-.18,.58-.33,.16-.14,.27-.32,.34-.51,.08-.21,.12-.42,.12-.65,.03-.43-.14-.86-.45-1.16-.38-.29-.84-.43-1.32-.41h-1.24v3.17h-.05Z"/><path class="cls-1" d="M102.32,60.93h-.43c-.07,.01-.15,.01-.22,0-.07-.04-.11-.11-.11-.18l-.14-.55c-.13,.12-.27,.24-.42,.34-.14,.1-.28,.19-.43,.26-.16,.07-.32,.12-.49,.16-.19,.02-.38,.02-.57,0-.2,0-.4-.03-.59-.09-.18-.05-.34-.14-.47-.26-.15-.12-.26-.27-.33-.45-.08-.2-.12-.42-.12-.65,0-.22,.06-.43,.17-.62,.14-.23,.34-.41,.58-.54,.32-.18,.67-.3,1.03-.38,.54-.09,1.1-.12,1.65-.09v-.42c.02-.35-.07-.69-.26-.97-.21-.22-.5-.34-.8-.33-.2,0-.4,.03-.59,.09l-.42,.2-.29,.2c-.07,.06-.16,.09-.25,.09-.06,.02-.12,.02-.17,0-.05-.03-.09-.07-.12-.12l-.17-.32c.28-.28,.61-.49,.97-.65,.37-.15,.76-.22,1.16-.21,.28,0,.55,.04,.8,.14,.23,.09,.43,.24,.59,.42,.17,.18,.3,.41,.37,.65,.09,.27,.13,.56,.13,.84v3.49l-.04-.05Zm-2.49-.59c.15,.02,.31,.02,.46,0,.14-.03,.27-.08,.4-.14,.13-.06,.25-.13,.36-.22,.12-.09,.23-.2,.33-.3v-1.19c-.38,0-.75,.02-1.12,.09-.26,.03-.51,.1-.75,.21-.17,.07-.31,.18-.42,.32-.09,.12-.13,.27-.13,.42,0,.13,.02,.25,.07,.37,.05,.1,.11,.19,.18,.26,.09,.07,.18,.12,.29,.14,.11,.03,.23,.04,.34,.04Z"/><path class="cls-1" d="M103.77,60.93v-5.45h.55c.08-.01,.15,.01,.21,.07,.05,.05,.08,.12,.08,.2v.84c.16-.34,.39-.64,.68-.88,.28-.21,.62-.32,.97-.32,.14-.01,.27-.01,.41,0l.33,.14-.12,.72c-.02,.08-.09,.13-.17,.13-.07,.01-.15,.01-.22,0-.14-.02-.29-.02-.43,0-.31-.01-.61,.09-.84,.29-.25,.24-.44,.52-.57,.84v3.48l-.88-.07Z"/><path class="cls-1" d="M109.75,61.01c-.36,.02-.72-.11-.99-.36-.25-.29-.37-.66-.34-1.04v-3.33h-.66s-.1,.02-.14,0c-.02-.05-.02-.11,0-.16v-.38l.9-.12,.22-1.67s-.02-.09,0-.13c.05-.02,.11-.02,.16,0h.42v1.76h1.57v.7h-1.57v3.27c-.01,.19,.05,.37,.17,.51,.12,.11,.27,.18,.43,.17,.08,.02,.17,.02,.25,0l.2-.08,.13-.09h.11s.09,0,.13,.09l.28,.46c-.17,.15-.37,.27-.59,.36-.22,.05-.45,.07-.67,.04Z"/><path class="cls-1" d="M112.1,60.93v-5.45h.58c.12,0,.23,.08,.25,.2l.08,.59c.23-.25,.49-.47,.79-.63,.31-.17,.66-.25,1.01-.25,.27,0,.54,.05,.79,.16,.22,.09,.42,.23,.57,.42,.16,.19,.29,.41,.36,.65,.08,.27,.12,.56,.12,.84v3.48h-.96v-3.48c.02-.34-.08-.68-.28-.96-.22-.24-.54-.36-.87-.34-.28,0-.55,.07-.79,.21-.26,.14-.49,.33-.68,.55v3.95l-.96,.07Z"/><path class="cls-1" d="M120.24,55.39c.31,0,.62,.06,.91,.17,.27,.1,.51,.26,.71,.47,.21,.22,.37,.48,.47,.76,.11,.33,.17,.68,.17,1.03,.02,.1,.02,.2,0,.3,0,0-.09,.08-.18,.08h-3.67c0,.3,.05,.61,.14,.9,.07,.23,.18,.45,.34,.63,.15,.17,.33,.3,.54,.38,.22,.09,.46,.14,.7,.13,.21,0,.43-.02,.63-.08,.15-.05,.3-.11,.45-.18l.32-.18c.06-.05,.13-.07,.21-.08,.07,0,.15,.03,.18,.09l.26,.36c-.12,.14-.26,.27-.42,.37-.16,.11-.34,.2-.53,.26-.19,.07-.38,.12-.58,.14-.2,.02-.4,.02-.61,0-.36,0-.71-.06-1.04-.18-.31-.12-.59-.32-.82-.57-.25-.26-.43-.57-.54-.91-.14-.4-.21-.83-.2-1.25,0-.36,.06-.72,.17-1.07,.11-.32,.29-.61,.51-.86,.22-.24,.49-.44,.79-.57,.34-.12,.7-.18,1.07-.16Zm0,.71c-.4-.02-.8,.12-1.09,.4-.28,.31-.46,.7-.5,1.12h2.96c0-.21-.03-.42-.09-.62-.05-.18-.14-.34-.26-.47-.12-.13-.27-.24-.43-.32-.18-.07-.36-.1-.55-.11h-.03Z"/><path class="cls-1" d="M123.72,60.93v-5.45h.55c.11,0,.17,0,.21,.07,.05,.05,.08,.12,.08,.2v.84c.16-.34,.4-.65,.7-.88,.28-.21,.61-.32,.96-.32,.14-.01,.27-.01,.41,0l.34,.14-.13,.72c-.02,.07-.08,.13-.16,.13-.08,.01-.16,.01-.24,0-.14-.02-.29-.02-.43,0-.3-.01-.6,.09-.83,.29-.25,.23-.45,.52-.57,.84v3.48l-.9-.07Z"/></g></g></g></svg>